<?xml version="1.0" standalone="no"?>
<!DOCTYPE svg PUBLIC "-//W3C//DTD SVG 1.1//EN" "http://www.w3.org/Graphics/SVG/1.1/DTD/svg11.dtd" >
<svg xmlns="http://www.w3.org/2000/svg">
<metadata>Generated by IcoMoon</metadata>
<defs>
<font id="shanticon" horiz-adv-x="512">
<font-face units-per-em="512" ascent="480" descent="-32" />
<missing-glyph horiz-adv-x="512" />
<glyph unicode="&#x20;" d="" horiz-adv-x="256" />
<glyph unicode="&#xe000;" d="M339 193.429v-54c0-13-10-23-23-23h-242c-12 0-23 10-23 23v224c0 13 11 23 23 23h242c13 0 23-10 23-23v-53l122 57v-232z" />
<glyph unicode="&#xe001;" d="M404 420.429c0 0-1 0-1 0v0l-9 10h-1c-5 4-13 4-18-1v0l-17-17c-4-5-4-13 0-18v0l10-10v1c0-1 0-1 0-1 74-73 74-193 1-267v1l-10-10c-4-6-4-14 1-19v0l17-17c5-4 13-4 18 0v0l10 10h-1c93 93 93 245 0 338zM355 352.429c0 1 0 1 0 1v0l-10 10c-6 4-13 4-18-1v0h-1c0 0 0 0 0 0s0 0 0-1l-16-16c0 0 0 0 0 0s0 0 0 0l-1-1c-4-5-4-12 0-17v0l10-10c0 0 0 0 1 0 36-37 36-95 0-132v0l-9-9c0 0 0 0 0 0v0l-1-1c-4-5-4-13 1-18v0l18-18c5-4 12-4 17 0v0l10 10c55 57 55 147-1 203zM270 385.429c-2 0-4 0-5-1v0l-105-61-40-23h-74c0 0 0 0 0 0-4 0-8-3-8-8v-105c0-5 4-8 8-8 0 0 0 0 0 0v0h74l144-83c2-1 4-2 6-2 6 0 11 5 11 10 0 1 0 1 0 2v0 270c-1 5-5 9-11 9z" />
<glyph unicode="&#xe002;" d="M305 234.429c0-27-22-48-49-48s-48 21-48 48c0 27 21 49 48 49 27 0 49-22 49-49zM444 383.429v0h-85v15c0 10-9 19-19 19h-168c-10 0-19-9-19-19v-15h-85c-11 0-19-8-19-19v-259c0-11 8-19 19-19v-1h376v1c11 0 19 8 19 19v259c0 11-8 19-19 19zM257 136.429c-54 0-98 44-98 98 0 55 44 99 98 99 55 0 99-44 99-99 0-54-44-98-99-98zM438 307.429h-76v51h76v-51z" />
<glyph unicode="&#xe003;" d="M291 454.429c-91 0-164-74-164-164 0-31 8-60 23-85l-79-79c-8-8-14-20-14-33 0-25 21-45 46-45 12 0 24 5 32 14v-1l82 82c22-11 47-17 74-17 90 0 164 73 164 164 0 90-74 164-164 164zM292 191.429c-57 0-103 45-103 102 0 56 46 102 103 102 56 0 102-46 102-102 0-57-46-102-102-102zM352 317.429v0h-36v36c0 5-4 8-8 8 0 0-1 0-1 0h-31c0 0 0 0 0 0-5 0-8-3-8-8 0 0 0 0 0-1v-35h-37c-4 0-8-4-8-8v-32c0-5 4-8 8-8 1 0 1 0 1 0h36l-1-36h1c0 0 0 0 0 0 0-5 3-8 8-8 0 0 0 0 0 0v0h32c4 0 8 3 8 8v0 36h36c0 0 0 0 0 0 4 0 8 3 8 8v32c0 4-4 8-8 8z" />
<glyph unicode="&#xe004;" d="M291 454.429c-91 0-164-74-164-164 0-31 8-60 23-85l-79-79c-8-8-14-20-14-33 0-25 21-45 46-45 12 0 24 5 32 14v-1l82 82c22-11 47-17 74-17 90 0 164 73 164 164 0 90-74 164-164 164zM292 191.429c-57 0-103 45-103 102 0 56 46 102 103 102 56 0 102-46 102-102 0-57-46-102-102-102zM352 317.429h-121c-4 0-8-4-8-8v-32c0-5 4-8 8-8h121c4 0 8 3 8 8v32c0 4-4 8-8 8z" />
<glyph unicode="&#xe005;" d="M309 327.429v-1l10-9c0 0 0 0 1-1 22-22 31-53 25-82l41-41c22 53 12 116-31 159 0 0 0 0 0 0v0l-10 10c-6 4-13 4-18-1v0h-1c0 0 0 0 0 0s0 0 0 0l-16-16c0 0 0 0 0 0s0 0 0 0l-1-1c-4-5-4-12 0-17zM404 420.429c0 0 0 0-1 0v0l-9 10h-1c-5 4-13 4-18-1v0l-17-18c-4-5-4-12 0-17v0l10-10c0 0 0 0 0 0 57-57 70-142 39-212l37-37c50 91 37 208-40 285zM281 375.429v0c-1 6-5 10-11 10-2 0-4-1-5-2v0l-44-25 60-60v77zM120 300.429h-74c0 0 0 0 0 0-4 0-8-4-8-8v-106c0-4 4-8 8-8 0 0 0 0 0 0v0h74l144-83c2-1 4-1 6-1 6 0 11 4 11 10 0 1 0 1 0 1v0 49l-152 151zM439 104.429l-331 331c0 0 0 0 0 0-5 5-13 5-18 0 0 0 0-1 0-1l-18-18c0 0 0 0 0 0-5-5-5-13 0-18l331-331c5-5 13-5 18 0v0l18 18c0 0 0 0 0 1 5 5 5 13 0 18 0 0 0 0 0 0z" />
<glyph unicode="&#xe006;" d="M394 251.429c0 4-2 8-6 10l-252 146c-2 1-4 2-7 2-6 0-11-5-11-12 0 0 0-1 0-1v0-293c1-5 5-10 11-10 2 0 4 1 6 2v0l253 146c4 2 6 6 6 10z" />
<glyph unicode="&#xe007;" d="M256 443.429c-106 0-192-86-192-192s86-192 192-192c106 0 192 86 192 192 0 106-86 192-192 192zM256 110.429c-78 0-141 63-141 141s63 141 141 141c78 0 141-63 141-141 0-78-63-141-141-141zM340 256.429v0l-120 69c-1 0-2 0-3 0-3 0-5-2-5-5 0 0 0 0 0-1v0-138c0-2 3-4 5-4 1 0 2 0 3 0v0l120 69c1 1 2 3 2 5s-1 4-2 5z" />
<glyph unicode="&#xe008;" d="M438 94.429c14 0 25 11 25 26v262c0 15-11 26-25 26h-364c-14 0-25-11-25-26v-262c0-15 11-26 25-26zM412 145.429h-312v212h312zM332 250.429l-61-36-62-35v141l62-35z" />
<glyph unicode="&#xe009;" d="M433 372.429c-2 0-4-1-6-2l-146-84v78c0 4-3 8-8 8-3 0-5-1-7-2l-192-111v-1c-2-1-4-4-4-7 0-4 2-7 5-8v0l192-111c1-1 3-2 6-2 4 0 8 3 8 8v0 78l146-84c2-1 4-2 6-2 5 0 9 3 9 8v0 226c0 4-4 8-9 8z" />
<glyph unicode="&#xe00a;" d="M446 372.429c-3 0-5-1-7-2l-145-84v78c0 4-4 8-9 8-2 0-5-1-6-2l-171-99v120c0 0 0 0 0 1 0 7-6 12-13 13h-25v-1c-7 0-13-5-13-13 0 0 1 0 1 0v-280c0 0 0 0 0 0s0 0 0 0v-2c0-6 6-11 13-11 0 0 0 0 0 0h23c1 0 1-1 1-1 8 0 13 6 13 13 0 1 0 2 0 2v119l171-99c2-1 4-2 6-2 5 0 9 3 9 8v0 78l146-84c1-1 3-2 6-2 5 0 8 3 9 8v0 226c0 4-4 8-9 8z" />
<glyph unicode="&#xe00b;" d="M453 285.429l-52 5c-4 12-9 25-15 36l33 41c4 4 4 11 0 15l-32 32c-3 2-5 3-8 3s-5-1-7-3l-41-33c-12 6-24 11-36 15l-5 52c-1 6-6 10-11 10h-46c-5 0-10-4-11-10l-5-52c-12-4-24-9-36-15l-41 33c-2 2-4 3-7 3s-5-1-8-3l-32-32c-4-4-4-11 0-15l33-41c-6-11-11-24-15-36l-52-5c-6-1-10-6-10-11v-46c0-5 4-10 10-11l52-5c4-12 9-24 15-36l-33-41c-4-4-4-11 0-15l32-32c3-2 5-3 8-3s5 1 7 3l41 33c12-6 24-11 36-15l5-52c1-6 6-10 11-10h46c5 0 10 4 11 10l5 52c12 4 24 9 36 15l41-33c2-2 4-3 7-3s5 1 8 3l32 32c4 4 4 11 0 15l-33 41c6 12 11 24 15 36l52 5c6 1 10 6 10 11v46c0 5-4 10-10 11zM256 190.429c-34 0-61 27-61 61s27 61 61 61c34 0 61-27 61-61 0-34-27-61-61-61z" />
<glyph unicode="&#xe00c;" d="M442 387.429l-39-39-25-24c-13-1-26 4-36 13-9 10-14 23-13 36l63 64c1 1 1 3 0 4 0 1 0 1-1 1v0c0 0 0 0 0 0s0 0 0 0c-14 6-29 10-45 10-61 0-111-50-111-111 0-12 2-23 6-33l-116-116c-39-1-70-32-70-71s32-71 71-71c39 0 70 31 71 70l116 116c10-4 21-6 33-6 61 0 111 50 111 111 0 16-4 31-10 45 0 0 0 0 0 0 0 0 0 1 0 1v0c0 0-1 0-1 0-1 1-3 1-4 0zM156 121.429c0-16-14-29-30-29s-29 13-29 29c0 16 13 30 29 30 16 0 30-14 30-30z" />
<glyph unicode="&#xe00d;" d="M434 155.429l-96 96 96 96c4 4 4 10 0 14l-68 68c-4 4-10 4-14 0l-96-96-96 96c-4 4-11 4-14 0l-68-68c-2-1-3-4-3-7 0-2 1-5 3-7l96-96-96-96c-2-2-3-5-3-7 0-3 1-6 3-7l68-68c1-2 4-3 7-3 2 0 5 1 7 3l96 96 96-96c2-2 5-3 7-3 3 0 5 1 7 3l68 68c4 4 4 10 0 14z" />
<glyph unicode="&#xe00e;" d="M420 281.429h-45v43c0 0 0 0 0 0 0 67-54 122-121 122-67 0-122-55-122-122v-43h-40c-8 0-14-6-14-14v-197c0-8 6-14 14-14h328c8 0 14 6 14 14v197c0 8-6 14-14 14zM204 324.429c0 28 22 50 50 50 27 0 49-22 50-49 0 0 0 0 0 0v0c0-1 0-1 0-1v-43h-100z" />
<glyph unicode="&#xe00f;" d="M291 454.429c-91 0-164-74-164-164 0-31 8-60 23-85l-79-79c-8-8-14-20-14-33 0-25 21-45 46-45 12 0 24 5 32 14v-1l82 82c22-11 47-17 74-17 90 0 164 73 164 164 0 90-74 164-164 164zM292 191.429c-57 0-103 45-103 102 0 56 46 102 103 102 56 0 102-46 102-102 0-57-46-102-102-102z" />
<glyph unicode="&#xe010;" d="M256 443.429c-106 0-192-86-192-192s86-192 192-192c106 0 192 86 192 192 0 106-86 192-192 192zM276 144.429c0-3-3-6-7-6h-26c-4 0-7 3-7 6v124c0 4 3 7 7 7h26c4 0 7-3 7-7zM256 303.429c-13 0-23 10-23 23s10 23 23 23c13 0 23-10 23-23 0-13-10-23-23-23z" />
<glyph unicode="&#xe011;" d="M453 420.429c-1 9-8 16-17 16h-360c-9 0-16-7-17-16v0-288c2-8 9-14 17-14v0h59v-35c0-9 8-17 17-17 6 0 11 3 14 8l45 44h225c8 0 15 6 17 14v0 288zM363 214.429l-65 31v-29c0-7-5-12-12-12h-110c-7 0-12 5-12 12v120c0 7 5 12 12 12h110c7 0 12-5 12-12v-28l65 30z" />
<glyph unicode="&#xe012;" d="M386 255.429v0 1c0 0 0 0 0 0v73c0 11-8 19-19 19s-19-8-19-19v-73c0-51-41-92-92-92s-92 41-92 92v73c0 11-8 19-19 19s-19-8-19-19v-74c0-65 48-119 111-128v-28h-69c-10 0-19-9-19-19 0-11 9-19 19-20v0h176c10 0 19 9 19 20 0 10-9 19-19 19h-69v28c63 9 111 63 111 128zM190 256.429c0-36 30-65 66-65s66 29 66 65c0 1 0 1 0 2v0 119c-1 36-30 65-66 65s-65-29-66-65v0-119c0-1 0-1 0-2z" />
<glyph unicode="&#xe013;" d="M348 201.429l-50 50 50 50c3 2 3 5 0 7l-35 35c-2 3-5 3-7 0l-50-50-50 50c-2 2-5 2-7 0l-35-35c-1-1-2-2-2-3 0-2 1-3 2-4l50-50-50-50c-1-1-2-2-2-4 0-1 1-2 2-3l35-35c1-1 2-2 3-2 2 0 3 1 4 2l50 50 50-50c1-1 2-2 4-2 1 0 2 1 3 2l35 35c3 2 3 5 0 7zM256 392.429c78 0 141-63 141-141s-63-141-141-141c-78 0-141 63-141 141 0 78 63 141 141 141zM256 443.429c-106 0-192-86-192-192s86-192 192-192c106 0 192 86 192 192 0 106-86 192-192 192z" />
<glyph unicode="&#xe014;" d="M420 274.429h-209v54c0 27 23 48 50 48 28 0 50-21 50-48 0-5 4-10 10-10h51c0 0 1 0 1 0 5 0 10 5 10 10 0 1 0 2-1 2-1 64-55 116-121 116-67 0-121-53-121-118v-54h-48c-8 0-14-6-14-13v-192c0-7 6-13 14-13h328c8 0 14 6 14 13v192c0 7-6 13-14 13z" />
<glyph unicode="&#xe015;" d="M83 403.429l50-50c5-6 15-6 20 0 6 6 6 15 0 21l-49 49c0 0 0 0 0 0s0 0 0 0v0 0c-6 6-15 6-21 0-6-5-6-15 0-20zM168 422.429l19-68c2-8 10-12 18-10 7 2 12 10 10 18l-18 68c0 0 0 0 0 0s0 0 0 0v0 0c-2 8-10 12-18 10s-12-10-11-18zM82 305.429v0 0c0 0 0 0 0 0v0l68-18c8-2 16 2 18 10s-2 16-10 18l-68 18c0 0 0 0 0 0s0 0 0 0v0 0c-8 2-16-2-18-10s3-16 10-18zM429 99.429l-50 50c-5 6-15 6-20 0-6-6-6-15 0-21l49-49c0 0 0 0 0 0s0 0 0 0v0 0c6-6 15-6 21 0 6 5 6 15 0 20zM344 80.429l-19 68c-2 8-10 12-18 10-7-2-12-10-10-18l18-68c0 0 0 0 0 0s0 0 0 0v0 0c2-8 10-12 18-10s12 10 11 18zM430 197.429v0 0c0 0 0 0 0 0s0 0 0 0l-68 18c-8 2-16-2-18-10s2-16 10-18l68-18c0 0 0 0 0 0s0 0 0 0v0 0c8-2 16 2 18 10s-3 16-10 18zM247 242.429c-39 39-101 40-141 4v0l-52-52c-40-40-40-105 0-145 40-39 105-39 145 0l52 52c36 40 35 102-4 141zM213 136.429l-3-4-46-46c-20-20-53-20-73 0s-20 53 0 73v0l49 49c21 17 51 16 70-3s20-49 3-69zM458 453.429c-39 38-101 39-141 3v0l-52-51c-40-40-40-105 0-145s105-40 145 0l51 52c37 40 35 102-3 141zM424 346.429l-49-49c-20-20-53-20-73 0s-20 53 0 73v0l46 46c0 0 0 0 0 0l3 3c21 17 51 16 70-3s20-50 3-70z" />
<glyph unicode="&#xe016;" d="M456 338.429c0 1 0 1 0 1 0 5-2 10-5 13v1l-40 69c-1 6-6 10-13 10 0 0 0 0-1 0v0h-283c0 0 0 0 0 0-5 0-9-3-12-7v0l-42-72c-3-4-4-9-4-14 0 0 0 0 0-1v-247c0 0 0 0 0 0 0-12 9-21 20-21 1 0 1 0 1 0h358c0 0 0 0 0 0 12 0 21 9 21 21 0 0 0 0 0 0v247zM325 213.429l-64-90c-1-1-3-2-5-2 0 0 0 0 0 0-2 0-4 1-5 2l-64 90c-1 2-1 4 0 6s3 3 5 3h30v81c0 3 3 6 6 6h56c3 0 6-3 6-6v-81h30c2 0 4-1 5-3s1-4 0-6zM94 360.429l27 47h270l27-47z" />
<glyph unicode="&#xe017;" d="M442 251.429c0 4-2 7-5 8v0l-192 111c-1 1-3 2-6 2-4 0-8-3-8-8v0-78l-146 84c-2 1-4 2-6 2-5 0-9-3-9-8v0-226c0-4 4-8 9-8 2 0 4 1 6 2l146 84v-78c0-4 3-8 8-8 3 0 5 1 7 2l192 111v1c2 1 4 4 4 7z" />
<glyph unicode="&#xe018;" d="M78 200.429h357c7 1 12 6 12 13 0 4-2 7-4 9l-178 177c-2 3-5 5-9 5-5 0-8-2-11-5l-176-177c-3-3-4-6-4-9 0-7 6-13 13-13zM447 111.429v51c0 7-6 13-13 13v0l-357-1c-7-1-12-6-12-13 0 0 0 0 0 0v-49c0 0 0-1 0-1 0-7 5-12 12-13v0h357c7 0 13 6 13 13 0 0 0 0 0 0z" />
<glyph unicode="&#xe019;" d="M454 111.429v280c0 0 0 0 0 0s0 0 0 0v2c0 6-6 11-13 11 0 0 0 0 0 0h-23c-1 0-1 1-1 1-8 0-13-6-13-13 0-1 0-2 0-2v-119l-171 99c-2 1-4 2-6 2-5 0-9-3-9-8v0-78l-146 84c-1 1-3 2-6 2-5 0-8-3-9-8v0-226c0-4 4-8 9-8 3 0 5 1 7 2l145 84v-78c0-4 4-8 9-8 2 0 5 1 6 2l171 99v-120c0 0 0 0 0-1 0-7 6-13 13-13h25v1c7 0 13 5 13 13 0 0-1 0-1 0z" />
<glyph unicode="&#xe01a;" d="M410 394.429c0 6-5 11-11 11 0 0 0 0-1 0h-284c0 0 0 0-1 0-6 0-11-5-11-11 0-1 0-1 0-2v-284c0 0 0 0 0 0 0-6 5-11 11-11 1 0 1 0 1 0v0h285c6 1 11 5 11 11v0z" />
<glyph unicode="&#xe01b;" d="M208 405.429c-1 0-1 0-2 0v0h-53c-6 0-11-5-11-11 0 0 0 0 0 0v0-286c0 0 0 0 0 0 0-6 5-11 11-11h55c6 0 11 5 11 11 0 0 0 0 0 0v0 286c0 0 0 0 0 0 0 6-5 11-11 11zM370 108.429v286c0 0 0 0 0 0 0 6-5 11-11 11-1 0-1 0-2 0v0h-53c-6 0-11-5-11-11 0 0 0 0 0 0v0-286c0 0 0 0 0 0 0-6 5-11 11-11h55c6 0 11 5 11 11 0 0 0 0 0 0z" />
<glyph unicode="&#xe01c;" d="M467 90.429v0l-1 2c0 0-1 1-1 2l-193 334c-3 5-9 9-16 9-8 0-14-4-17-11v0l-191-331c-3-4-4-8-4-12 0-10 8-18 18-18h388c10 0 18 8 18 18 0 3 0 5-1 7zM256 99.429c-15 0-26 12-26 27 0 14 11 26 26 26 15 0 26-12 26-26 0-15-11-27-26-27zM282 332.429v-145c0 0 0 0 0 0 0-6-4-11-10-11 0 0 0 0 0 0v0h-32c-6 0-10 5-10 11 0 0 0 0 0 0v0 144c0 0 0 1 0 1 0 5 4 10 9 10v0h33c6 0 10-4 10-10v0 0c0 0 0 0 0 0z" />
<glyph unicode="&#xe01d;" d="M113 247.429l133-187c2-3 6-5 10-5 0 0 0 0 0 0 5 0 9 2 11 5l132 187c3 4 4 9 1 13-2 4-6 7-11 7h-62v167c0 8-6 13-13 13h-116c-7 0-13-5-13-13v-167h-62c-5 0-9-3-11-7-3-4-2-10 1-13z" />
<glyph unicode="&#xe01e;" d="M252 394.429l-187-133c-3-2-5-6-5-10 0 0 0 0 0 0 0-5 2-9 5-11l187-132c4-3 9-4 13-1 4 2 7 6 7 11v62h167c8 0 13 6 13 13v116c0 7-5 13-13 13h-167v62c0 5-3 9-7 11-4 3-10 2-13-1z" />
<glyph unicode="&#xe01f;" d="M260 108.429l187 133c3 2 5 6 5 10 0 0 0 0 0 0 0 5-2 9-5 11l-187 132c-4 3-9 4-13 1-4-2-7-6-7-11v-62h-167c-8 0-13-6-13-13v-116c0-7 5-13 13-13h167v-62c0-5 3-9 7-11 4-3 10-2 13 1z" />
<glyph unicode="&#xe020;" d="M399 255.429l-133 187c-2 3-6 5-10 5 0 0 0 0 0 0-5 0-9-2-11-5l-132-187c-3-4-4-9-1-13 2-4 6-7 11-7h62v-167c0-8 6-13 13-13h116c7 0 13 5 13 13v167h62c5 0 9 3 11 7 3 4 2 10-1 13z" />
<glyph unicode="&#xe021;" d="M194 112.429l-18-45h168l-17 45zM208 157.429h104l-52 138zM404 435.429h-296c-20 0-36-16-36-36v-296c0-20 16-36 36-36h10l107 270c2 5 7 9 13 9h45c6 0 11-4 12-9v0l107-270h2c20 0 36 16 36 36v296c0 20-16 36-36 36z" />
<glyph unicode="&#xe022;" d="M422 199.429c0 0 0 1 0 1v0l-88 51 89 51c4 3 6 10 3 14 0 0 0 1 0 1v0l-28 49c-3 4-9 6-14 3v0l-89-51v103c0 6-5 10-11 10 0 0 0 0 0 0v0h-56c-6 0-10-5-10-10v0-103l-90 52c-5 2-11 0-14-4 0 0 0-1 0-1v0l-28-49c-3-4-1-10 4-13v0 0c0 0 0 0 0 0s0-1 0-1l89-51-87-50c-1-1-2-1-2-1-5-3-7-9-4-14v0l29-51c3-4 9-5 13-2 0 0 0 0 0 0h1l89 51v-100c-1-1-1-2-1-3 0-5 5-10 10-10v0h59c5 1 8 5 8 10 0 0 0 0 0 0h1v103l87-50c0-1 1-1 2-1 4-3 11-2 14 3v0l28 49c0 0 0 0 0 0s0 0 0 0l1 2c1 5 0 10-5 12z" />
<glyph unicode="&#xe023;" d="M24 149.429l-24-144c0-3 1-6 2-8 0 0 0 0 0 0 2-1 5-2 8-2l144 25c3 0 6 2 6 5 1 3 1 6-2 8l-28 29 76 75c3 4 3 9 0 12l-52 52c-3 4-9 4-12 0l-76-75-28 28c-2 2-5 3-8 2s-5-4-6-7zM488 353.429l24 144c0 3-1 6-2 8 0 0 0 0 0 0-2 1-5 2-8 2l-144-25c-3 0-6-2-6-5-1-3-1-6 2-8l28-29-76-75c-3-4-3-9 0-12l52-52c3-4 9-4 12 0l76 75 28-28c2-2 5-3 8-2s5 4 6 7zM358 19.429l144-24c3 0 6 1 8 2 0 0 0 0 0 0 1 2 2 5 2 8l-25 144c0 3-2 6-5 6-3 1-6 1-8-2l-29-28-75 76c-4 3-9 3-12 0l-52-52c-4-3-4-9 0-12l75-76-28-28c-2-2-3-5-2-8s4-5 7-6zM154 483.429l-144 24c-3 0-6-1-8-2 0 0 0 0 0 0-1-2-2-5-2-8l25-144c0-3 2-6 5-6 3-1 6-1 8 2l29 28 75-76c4-3 9-3 12 0l52 52c4 3 4 9 0 12l-75 76 28 28c2 2 3 5 2 8s-4 5-7 6z" />
<glyph unicode="&#xe024;" d="M184 49.429l24 145c1 3 0 5-2 7 0 0 0 0 0 0-2 2-5 3-7 3l-145-25c-3 0-5-2-6-5s0-7 2-9l28-28-76-76c-3-3-3-8 0-11l53-53c3-3 8-3 11 0l76 76 28-28c3-2 6-3 9-2s5 3 5 6zM328 453.429l-24-145c-1-3 0-5 2-7 0 0 0 0 0 0 2-2 5-3 7-3l145 25c3 0 5 2 6 5s0 7-2 9l-28 28 76 76c3 3 3 8 0 11l-53 53c-3 3-8 3-11 0l-76-76-28 28c-3 2-6 3-9 2s-5-3-5-6zM458 179.429l-145 24c-3 1-5 0-7-2 0 0 0 0 0 0-2-2-3-5-3-7l25-145c0-3 2-5 5-6s7 0 9 2l28 28 76-76c3-3 8-3 11 0l53 53c3 3 3 8 0 11l-76 76 28 28c2 3 3 6 2 9s-3 5-6 5zM54 323.429l145-24c3-1 5 0 7 2 0 0 0 0 0 0 2 2 3 5 3 7l-25 145c0 3-2 5-5 6s-6 0-9-2l-28-28-76 76c-3 3-8 3-11 0l-53-53c-3-3-3-8 0-11l76-76-28-28c-2-3-3-6-2-9s3-5 6-5z" />
<glyph unicode="&#xe025;" d="M452 163.429v0l-49 84c-1 2-4 4-7 4s-6-2-7-5l-47-82c-1-1-2-3-2-5 0-4 4-8 8-8h12c-20-22-47-38-79-44v150h47c4 0 8 3 8 8v0 35c0 0 0 0 0 0 0 4-4 8-8 8h-47v27c20 10 34 30 34 54 0 32-26 59-59 59-33 0-59-27-59-59 0-24 14-44 34-54v-27h-47c0 0 0 0 0 0-4 0-8-4-8-8v0-35c0-5 4-8 8-8h47v-150c-32 6-59 22-79 44h12c4 0 8 4 8 8 0 2-1 3-1 4v0l-48 84c-2 2-4 4-7 4-4 0-7-2-8-5l-47-82c-1-1-2-3-2-5 0-4 4-8 8-8h22c33-58 95-97 167-97s134 39 167 97h22c4 0 8 4 8 8 0 2-1 3-1 4zM256 355.429c-18 0-33 15-33 34 0 18 15 33 33 33 18 0 33-15 33-33 0-19-15-34-33-34z" />
<glyph unicode="&#xe026;" d="M448 251.429c0 106-86 192-192 192s-192-86-192-192c0-106 86-192 192-192 34 0 66 9 94 25 3 1 5 4 5 7 0 3-2 6-4 7v0l-34 21c-1 1-3 2-5 2-1 0-2 0-3-1v0c-17-6-34-10-53-10-78 0-141 63-141 141 0 78 63 141 141 141 73 0 134-56 140-128 0-51-22-80-39-80-10 0-17 7-17 21 0 2 1 8 1 11l22 101h-1c0 1 1 1 1 2 0 3-3 6-7 6h-37c-4 0-6-2-7-5v0l-4-18c-9 17-28 30-56 30-52 0-102-50-102-111 0-43 26-75 70-75 24 0 49 14 65 36v-3c4-17 51-39 78-39 39 0 85 27 85 102v0c0 3 0 6 0 9zM290 216.429c-10-14-26-30-50-30-23 0-37 16-37 40 0 33 26 65 62 65 20 0 32-13 36-23z" />
<glyph unicode="&#xe027;" d="M350 440.429h-188c-8 0-15-7-15-16v-351c0-6 5-11 11-11 3 0 6 1 8 3v0l82 83h1c1 2 4 3 7 3s6-1 8-3v0l81-82c2-2 5-4 9-4 6 0 11 5 11 11v351c0 9-7 16-15 16z" />
<glyph unicode="&#xe028;" d="M453 251.429c0 5-2 9-5 11v0l-48 28 28 47v1c1 3 1 8-1 12s-6 6-10 7v0h-56v55c0 4-3 8-6 10-4 2-9 2-13 1v0l-48-28-27 46c-3 4-7 6-11 6-5 0-9-2-11-6h-1l-27-47-47 27c-4 2-8 2-12-1-4-2-7-6-7-10v0-55h-55c-4 0-8-2-10-6s-2-9-1-13v0l27-46-48-28c-3-3-5-7-5-11 0-5 2-9 5-11v0l48-28-28-48c-1-3-1-8 1-12s6-6 11-7v0h55v-55c0-4 3-8 6-10 4-2 9-2 13-1v0l48 28 27-46c3-4 7-6 11-6 5 0 9 2 11 6h1l27 47 47-27c4-2 8-2 12 1 4 2 7 6 7 10v0 55h55c4 0 8 2 10 6s2 9 1 13v0l-27 46 48 28c3 3 5 7 5 11z" />
<glyph unicode="&#xe029;" d="M413 305.429h-314c-3 0-6-3-6-7v-225c0-3 3-6 6-6h314c3 0 6 3 6 6v225c0 4-3 7-6 7zM202 114.429c-11 0-23 3-32 6-2 1-3 2-2 4l3 22c0 1 0 1 1 2 1 0 2 1 3 0 10-4 19-5 29-5 12 0 20 5 20 13 0 9-5 14-30 16-2 0-3 1-3 3v22c0 2 1 3 3 3 21 2 24 8 24 13 0 3 0 9-15 9-7 0-16-2-24-6-1-1-2-1-3 0-1 0-2 1-2 2l-3 22c0 1 1 3 2 3 10 5 22 7 37 7 26 0 44-12 44-30 0-14-7-24-21-31 12-4 25-13 25-31 0-27-22-44-56-44zM338 120.429c0-2-1-4-3-4h-27c-1 0-3 2-3 4v88l-17-7c-1 0-2 0-3 0-1 1-2 2-2 3l-3 22c0 1 1 2 2 3l38 19c1 0 1 0 2 0h13c2 0 3-1 3-3v-125zM413 406.429h-34v-16c0-16-9-34-36-34-26 0-36 18-36 34v16h-102v-16c0-16-9-34-36-34-26 0-36 18-36 34v16h-34c-3 0-6-3-6-6v-66c0-4 3-7 6-7h314c3 0 6 3 6 7v66c0 3-3 6-6 6zM169 377.429c11 0 15 4 15 13v32c0 9-4 13-15 13s-15-4-15-13v-32c0-9 4-13 15-13zM343 377.429c11 0 15 4 15 13v32c0 9-4 13-15 13s-15-4-15-13v-32c0-9 4-13 15-13z" />
<glyph unicode="&#xe02a;" d="M451 352.429l-66 66c-3 2-6 4-9 4s-7-2-9-4l-176-176-46 47c-5 5-13 5-18 0l-66-66c-2-3-3-6-3-9s1-7 3-9l121-121c3-2 6-4 9-4 0 0 0 1 0 1 1 0 1-1 1-1 3 0 6 2 9 4l250 250c5 5 5 13 0 18z" />
<glyph unicode="&#xe02b;" d="M471 382.429l-44 45c-1 1-4 2-6 2s-4-1-6-2l-159-160-31 31c-3 3-9 3-12 0l-44-44c-2-2-2-4-2-6s0-4 2-6l81-80c1-2 3-3 6-3 0 0 0 0 0 0 0 0 0 0 0 0 2 0 4 1 6 3l209 209c3 3 3 8 0 11zM369 232.429v-108h-226v226h159l51 51h-234c0 0 0 0-1 0-14 0-25-12-26-26v0-276c1-14 12-26 26-26v0h276c14 0 25 12 26 26v0 185z" />
<glyph unicode="&#xe02c;" d="M434 384.429c-1 0-2 0-3 0v0c-17-9-37-14-58-14-38 0-73 17-95 45-21 19-49 31-80 31-29 0-56-11-77-29-4 9-13 15-24 15-15 0-27-12-27-27v-322c0-15 12-27 27-27s27 12 27 27v145c17 9 36 13 56 13 39 0 73-17 96-45 21-19 49-31 79-31 33 0 63 14 84 36 2 2 3 4 3 6v169c0 5-4 8-8 8z" />
<glyph unicode="&#xe02d;" d="M440 384.429h-188c-10 12-20 25-23 28-2 6-8 10-14 10h-75c-5 0-9-3-13-6l-25-32h-30c-16 0-28-13-28-28v-248c0-15 12-28 28-28h368c16 0 28 13 28 28v248c0 15-12 28-28 28z" />
<glyph unicode="&#xe02e;" d="M277 441.429c-3 0-6-3-6-7 0 0 0 0 0-1v0-161c0-3 3-6 6-6h161c1 0 1 0 1 0 4 0 7 3 7 6-1 93-76 168-169 169zM407 233.429c0 4-3 7-7 7h-148c-4 0-7 3-7 7v147c0 1 0 1 0 1 0 4-3 7-6 7-1 0-1 0-1 0v0c0 0-1 0-2 0-94 0-170-76-170-171 0-94 76-170 170-170 95 0 171 76 171 170 0 1 0 2 0 2 0 0 0 0 0 0z" />
<glyph unicode="&#xe02f;" d="M428 313.429l-167 129c-4 4-11 4-16 0l-161-129c-3-2-5-6-5-10v-233c0-7 6-13 13-13h96c7 0 13 6 13 13v143h110v-143c0-7 6-13 13-13h96c7 0 13 6 13 13v233c0 4-2 8-5 10z" />
<glyph unicode="&#xe030;" d="M346 438.429c-36 0-69-17-90-44-21 27-54 44-90 44-63 0-114-51-114-114-1-68 32-108 58-140l6-7c31-39 128-108 132-111 2-1 5-2 8-2 3 0 6 1 8 2 4 3 101 72 132 111l6 7c26 32 59 72 59 140-1 63-52 114-115 114z" />
<glyph unicode="&#xe031;" d="M436 96.429c14 0 25 11 25 25v260c0 14-11 25-25 25h-360c-14 0-25-11-25-25v-260c0-14 11-25 25-25zM410 146.429h-308v210h308zM213 170.429c-5 0-10 1-13 5l-25 25-30-25c-8-7-19-6-26 2-6 8-5 19 3 25l43 36c7 6 17 5 24-1l21-21 46 72c3 5 9 8 16 8 7-1 12-4 15-10l27-58 53 92c5 9 15 12 24 7s12-16 7-24l-70-123c-3-5-9-9-16-9-7 1-13 5-16 11l-28 59-40-63c-3-5-8-8-13-8-1 0-2 0-2 0z" />
<glyph unicode="&#xe032;" d="M72 160.429h368c14 0 26 12 26 26v226c0 14-12 25-26 25h-368c-14 0-26-11-26-25v-226c0-14 12-26 26-26zM97 386.429h318v-175h-318zM488 135.429h-464c-7 0-12-5-12-12v-28c0-3 1-6 3-8l17-18c2-3 5-4 9-4h429c3 0 6 1 9 3l17 18c3 3 4 6 4 9v28c0 7-5 12-12 12zM300 94.429c0-1-1-3-2-3h-84c-1 0-2 2-2 3v12c0 1 1 2 2 2h84c1 0 2-1 2-2z" />
<glyph unicode="&#xe033;" d="M403 398.429c-39 38-101 40-141 3v0l-52-51c-9-10-16-20-21-32-10-4-20-10-28-18v1l-52-52c-40-40-40-105 0-145s105-40 145 0l52 52h-1c8 8 14 18 18 28 12 5 22 12 32 21l52 52h-1c37 40 35 102-3 141zM219 141.429v0c-20-20-53-20-73 0s-20 53 0 73l38 38c4-17 13-33 26-47 14-13 30-22 47-26zM247 242.429c-9 9-14 21-15 33 12-1 24-6 33-15 9-9 14-21 15-33-12 1-24 6-33 15zM369 291.429l-41-41c-4 17-13 33-26 47-14 13-30 22-47 26l38 38c0 0 0 0 0 0v0l3 3c21 17 51 16 70-3s20-49 3-70z" />
<glyph unicode="&#xe034;" d="M422 126.429c0 1 0 2 0 2v138c0 0 0 0 0 0 0 7-6 13-13 13 0 0 0 0-1 0h-24c-7 0-13-6-13-13v0-141c1-6 6-11 13-11v-1h25c8 0 13 6 13 13zM346 105.429v187c0 0 0 0 0 0 0 7-6 13-13 13-1 0-1 0-1 0h-51c-1 1-2 2-3 3l-50 87c-6 9-15 15-26 15-16 0-29-13-29-29h-1v-76h-70c-7-1-12-6-12-13v0-144c0-2 0-4 2-5v0l50-50c1-1 3-2 5-1h184c1 0 1 0 2 0 7 0 12 5 13 12v0 0c0 0 0 0 0 1 0 0 0 0 0 0zM105 148.429v0z" />
<glyph unicode="&#xe035;" d="M488 107.429v0l-170 295c-4 8-12 13-21 13s-17-6-21-14l-113-196-28 48c-2 4-6 7-11 7s-9-3-11-7l-81-140v-1l-8-13c-1-2-2-3-2-5 0-4 4-7 8-7 0 0 1 0 2 1v-1h445c7 1 13 7 13 14 0 2-1 4-2 6z" />
<glyph unicode="&#xe036;" d="M431 437.429h-262c-9 0-17-7-17-16v-246c-6 1-12 2-18 2-38 0-69-25-69-56 0-31 31-56 69-56 38 0 69 25 69 56v236h193v-135c-6 1-12 2-18 2-38 0-69-25-69-56 0-31 31-56 69-56 38 0 69 25 69 56v253c0 9-7 16-16 16z" />
<glyph unicode="&#xe037;" d="M463 327.429c0 5-4 9-9 9h-67v110c0 5-5 10-10 10h-242c-5 0-10-5-10-10v-110h-67c0 0 0 0 0 0-5 0-9-4-9-9v0-188c0-5 4-10 9-10h67v79h262v-79h67c5 0 9 5 9 10v188zM361 294.429h-210v127c0 5 4 9 9 9h192c5 0 9-4 9-9v-127zM152 56.429c0-5 4-10 9-10h190c5 0 9 5 9 10v126h-208z" />
<glyph unicode="&#xe038;" d="M155 54.429c-14 0-32 5-50 23-24 24-27 47-25 62 2 17 11 34 27 50l150 151c43 42 71 26 83 13 16-15 26-42-14-82l-138-139-27 27 138 139c22 21 17 26 14 28-1 2-7 8-29-13l-150-151c-7-7-15-17-16-28-1-9 4-19 14-30 13-13 23-12 26-11 9 1 19 7 30 18 13 12 167 166 178 178 15 15 24 29 28 42 5 20-1 38-20 57-19 19-51 40-98-8l-165-165c-8-7-20-7-27 0-8 8-8 20 0 27l165 165c51 51 106 54 152 8 36-36 36-71 30-94-6-20-18-39-38-59-11-12-166-166-178-178-17-17-34-26-51-29-3 0-6-1-9-1z" />
<glyph unicode="&#xe039;" d="M455 357.429l-93 93c-5 5-14 5-20 0l-253-254-35-130c-2-4 0-10 3-14 5-4 11-5 16-2v0l128 34 254 254c5 5 5 14 0 19zM96 92.429l21 76 56-56z" />
<glyph unicode="&#xe03a;" d="M477 415.429c0 12-10 23-23 23-1 0-2 0-3-1v1h-393c-13 0-23-11-23-23v-330c1-12 11-21 23-21v0h393v1c1-1 2-1 3-1 12 0 22 9 23 21v0 330zM426 115.429h-55c0 1-1 2-1 2v0l-116 202c-3 5-8 9-15 9-6 0-11-4-14-10l-77-134-19 33c-2 3-4 5-8 5-3 0-6-2-7-5l-28-48v218h340zM400 309.429c0-28-23-51-51-51-29 0-52 23-52 51 0 29 23 52 52 52 28 0 51-23 51-52z" />
<glyph unicode="&#xe03b;" d="M432 304.429h-123v123c0 5-5 10-10 10h-86c-5 0-10-5-10-10v-123h-123c-5 0-10-5-10-10v-86c0-3 1-5 3-7s4-3 7-3h123v-123c0-3 1-5 3-7s4-3 7-3h86c3 0 5 1 7 3s3 4 3 7v123h123c3 0 5 1 7 3s3 4 3 7v86c0 5-5 10-10 10z" />
<glyph unicode="&#xe03c;" d="M433 396.429c0 3-2 6-4 7-3 2-6 1-8 0l-31-22-2-2c-33 33-78 53-128 53-100 0-181-81-181-181 0-100 81-181 181-181 60 0 117 29 150 80 2 2 2 4 2 6-1 3-2 5-4 6l-45 32c-5 3-11 1-14-3-20-30-53-47-89-47-59 0-107 48-107 107 0 59 48 107 107 107 25 0 48-8 66-23l-5-3-30-22c-3-2-4-5-3-8 0-3 2-5 5-6l130-44c2-1 5-1 7 1 2 1 3 4 3 6z" />
<glyph unicode="&#xe03d;" d="M134 174.429c-24 0-45-20-45-45 0-24 21-44 45-44 25 0 45 20 45 44 0 25-20 45-45 45zM121 298.429c-1 0-1 0-1 0v0h-18c-9-1-15-8-16-17v0-32h1c1-8 7-14 15-15v0h18c0 0 0 0 1 0 65 0 118-53 119-118v0-18c1-9 8-15 17-16v0h32v1c8 1 14 7 15 15v0 18c-1 100-83 182-183 182zM426 116.429c-1 167-138 304-305 304-1 0-1 0-1 0v0h-18v-1c-9-1-15-8-16-17v0-31h1c1-8 7-15 15-16v0h18c0 0 0 0 1 0 132 0 240-107 240-239v0-18c1-9 9-15 17-16v0h32v1c8 1 14 7 15 15h1v18z" />
<glyph unicode="&#xe03e;" d="M375 311.429c-8 0-15-1-22-4l-156 90c0 2 0 3 0 4 0 34-27 61-60 61-33 0-60-27-60-61 0-33 27-60 60-60 13 0 25 4 35 12l145-84c-1-6-2-12-2-18s1-12 2-18l-144-84c-10 7-23 12-36 12-33 0-60-27-60-60 0-34 27-61 60-61 33 0 60 27 60 61 0 1 0 2 0 3l157 91c6-3 13-4 21-4 33 0 60 27 60 60 0 33-27 60-60 60z" />
<glyph unicode="&#xe03f;" d="M420 189.429c-4 0-8-1-12-2l-35 60 35 60c2-1 4-1 7-1 15 0 27 12 27 27 0 16-12 28-27 28-10 0-18-5-23-12h-78l-36 62c3 5 5 10 5 15 0 16-13 28-28 28-15 0-28-12-28-28 0-5 2-10 5-14l-37-63h-79c-5 9-14 14-24 14-15 0-28-12-28-27 0-15 13-28 28-28 4 0 8 2 12 3l35-60-35-60c-2 1-4 1-7 1-15 0-27-12-27-28 0-15 12-27 27-27 10 0 18 5 23 12h78l35-61c-2-3-4-8-4-12 0-16 13-28 28-28 15 0 28 12 28 28 0 4-2 8-4 12l36 61h79c5-9 14-15 24-15 15 0 28 13 28 28 0 15-13 27-28 27z" />
<glyph unicode="&#xe040;" d="M492 212.429l-83 40c20 12 33 36 33 63 0 40-28 72-62 72-12 0-23-4-32-11 6-14 9-29 9-46 0-24-7-48-20-67 4-5 9-9 15-12v0l53-25c15-8 25-24 25-41v-70h57c7 0 14 7 14 16v66c0 7-4 13-9 15zM162 252.429c4 3 8 6 12 10-13 19-21 43-21 68 0 17 4 33 10 47-10 6-20 10-31 10-34 0-62-32-62-72 0-28 14-52 34-64l-84-39c-5-2-9-8-9-15v-66c0-9 7-16 14-16h55v70c0 17 10 34 26 41zM394 203.429l-72 34-31 15c14 8 25 21 32 37 5 12 9 26 9 41 0 9-2 17-4 24-9 38-38 65-73 65-34 0-63-26-73-63-2-8-3-17-3-26 0-16 3-31 10-44 7-14 18-27 31-35l-29-13-75-35c-6-3-10-10-10-18v-82c0-11 7-20 17-20h264c10 0 18 9 18 20v82c0 8-5 15-11 18z" />
<glyph unicode="&#xe041;" d="M388 336.429h-264c-7 0-12-5-12-12v-256c0-6 5-12 12-12h264c7 0 12 6 12 12v256c0 7-5 12-12 12zM405 418.429h-101v16c0 6-5 12-12 12h-72c-7 0-12-6-12-12v-16h-100c-7 0-13-5-13-12v-35c0-7 6-13 13-13h297c6 0 12 6 12 13v35c0 7-6 12-12 12z" />
<glyph unicode="&#xe042;" d="M471 92.429v0l-37 65h14c3 0 6 3 6 6 0 1 0 1-1 2v0l-34 60h8c2 0 4 2 4 4 0 1 0 1 0 2v0l-51 87c-1 2-3 4-6 4-2 0-5-2-6-4v0l-50-87c0-1 0-1 0-2 0-2 1-4 4-4v0h8l-34-60c-1-1-1-1-1-2 0-3 2-6 5-6v0h15l-11-19-43 75h21c4 0 8 3 8 8 0 1 0 2-1 3v1l-49 84h12c3 0 6 2 6 5 0 1 0 2-1 3v0l-71 123c-1 3-4 5-8 5s-7-2-9-5l-71-123c0-1 0-2 0-3 0-3 2-5 5-5v0h12l-48-83c-1-2-2-3-2-5 0-5 4-8 8-8v0h21l-52-90c-1-2-2-4-2-6 0-5 5-9 10-9v0h101v-44c0-4 4-7 8-7h37c5 0 8 3 8 7v44h83l-9-16c-1-1-1-2-1-3 0-4 3-7 7-7v0h72v-20c0-3 2-5 5-5h27c3 0 5 2 5 5v20h72c4 0 7 3 7 7 0 1-1 2-1 3z" />
<glyph unicode="&#xe043;" d="M377 387.429v0c0 5-5 10-10 10-2 0-4-1-6-2v0l-144-83h-74c0 0 0 0 0 0-5 0-8-4-8-8v-106c0-4 3-8 8-8 0 0 0 0 0 0v0h74l144-83c1-1 3-2 6-2 6 0 10 5 10 11 0 0 0 1 0 1v0z" />
<glyph unicode="&#xe044;" d="M256 443.429c-106 0-192-86-192-192s86-192 192-192c106 0 192 86 192 192 0 106-86 192-192 192zM117 226.429h30c5-38 21-73 45-101-39 20-67 57-75 101zM147 276.429h-30c8 44 36 81 75 101-24-28-40-63-45-101zM231 159.429c-17 18-28 41-33 67h33zM231 276.429h-33c5 26 16 49 33 67zM395 276.429h-30c-5 38-21 73-45 101 39-20 67-57 75-101zM281 159.429v67h33c-5-26-16-49-33-67zM281 276.429v67c17-18 28-41 33-67zM320 125.429c24 28 40 62 45 101h30c-8-44-36-81-75-101z" />
<glyph unicode="&#xe045;" d="M410 198.429l-80 38-34 16c15 9 27 24 35 41 6 14 10 29 10 46 0 9-1 18-4 27-10 41-42 72-81 72-38 0-70-30-81-70-2-9-4-19-4-29 0-18 4-34 11-49 8-16 20-30 35-39l-33-15-82-38c-7-4-12-12-12-21v-91c0-12 8-22 19-22h123v70c0 0 0 1 0 2v0l20 35c1 1 2 2 4 2s3-1 4-2v0-1c0 0 0 0 0 0l20-34c0-1 0-2 0-2v-70h123c11 0 19 10 19 22v91c0 9-4 17-12 21zM280 221.429v0l-20-35c-1-1-2-2-4-2s-3 1-4 2v0 0c0 0 0 0 0 0l-20 35c0 0 0 1 0 2 0 2 2 4 4 4h40c2 0 4-2 4-4 0-1 0-2 0-2z" />
<glyph unicode="&#xe046;" d="M440 384.429h-188c-10 12-20 25-23 28-2 6-8 10-14 10h-75c-5 0-9-3-13-6l-25-32h-30c-16 0-28-13-28-28v-248c0-15 12-28 28-28h368c16 0 28 13 28 28v248c0 15-12 28-28 28zM418 183.429c0-1-1-2-1-2-1-1-2-1-3-1h-45v-45c0-1 0-2-1-3 0 0-1-1-2-1h-32c-1 0-1 1-2 1-1 1-1 2-1 3v45h-45c-1 0-2 0-2 1-1 0-1 1-1 2v31c0 2 1 4 3 4h45v45c0 2 1 3 3 3h32c2 0 3-1 3-3v-45h45c2 0 4-2 4-4z" />
<glyph unicode="&#xe047;" d="M356 240.429c-10 0-17-8-17-17v-15h34v15c0 0 0 0 0 0v0c0 0 0 0 0 0 0 9-8 17-17 17zM440 384.429h-188c-10 12-20 25-23 28-2 6-8 10-14 10h-75c-5 0-9-3-13-6l-25-32h-30c-16 0-28-13-28-28v-248c0-15 12-28 28-28h368c16 0 28 13 28 28v248c0 15-12 28-28 28zM418 136.429c0-3-3-5-5-5h-113c-2 0-4 2-4 5v67c0 3 2 5 4 5h14v15c0 23 19 42 42 42s41-19 41-42c0 0 0 0 0 0v-15h16c2 0 4-2 4-5v-67z" />
<glyph unicode="&#xe048;" d="M450 287.429l-42 42c-2 2-6 2-9 0l-115-116h-1l-15-59c-1-2-1-5 1-6 2-2 5-3 7-2v0l59 16 115 116c3 2 3 6 0 9zM287 166.429l9 35 26-26zM368 132.429h-38c0 0 0 0 0 0-3 0-6-3-6-6v0-45h-213v314h25v-15c0-1 0-1 0-1 0-5 4-9 9-9 1 0 1 0 1 0v0h143c5 0 9 4 9 9 0 0 0 0 0 0v16h26v-44c0-4 3-7 6-7h38c4 0 7 3 7 7v68c0 0 0 0 0 0 0 15-12 27-27 27 0 0 0 0-1 0h-74v18c0 4-4 8-8 8v0h-95c0 0 0 0 0 0-5 0-8-4-8-8 0 0 0 0 0-1v-17h-75c0 0 0 0 0 0-15 0-27-12-27-27 0 0 0 0 0 0v0-362c0 0 0 0 0 0 0-15 12-27 27-27 0 0 0 0 1 0v0h258c1 0 1 0 2 0 15 0 27 12 27 27 0 0 0 0 0 0v0 69c0 3-3 6-7 6z" />
<glyph unicode="&#xe049;" d="M420 393.429v0c0 4-4 8-8 8v0h-17v-309c0-5-4-9-9-9v0h-260c-4 0-8 3-9 7v19h243c0 0 0 0 0 0 5 0 9 4 9 8 0 0 0 0 0 0v319c0 4-4 8-9 8 0 0 0 0 0 0v0h-29v-179c0-2-2-4-4-4-1 0-3 1-3 2l-29 29c-1 0-2 1-3 1s-2-1-3-1v0l-29-30c-1 0-2-1-3-1-2 0-4 2-4 4v179h-153c-4 0-8-4-8-8 0 0 0 0 0-1v-368c0-1 0-1 0-1s0 0 0 0v0 0c0-5 4-8 8-8v0h312c4 0 8 4 8 8v0z" />
<glyph unicode="&#xe04a;" d="M420 393.429v0c0 4-4 8-8 8v0h-17v-309c0-5-4-9-9-9v0h-260c-4 0-8 3-9 7v19h243c0 0 0 0 0 0 5 0 9 4 9 8 0 0 0 0 0 0v319c0 4-4 8-9 8 0 0 0 0 0 0v0h-260c-4 0-8-4-8-8 0 0 0 0 0-1v-368c0-1 0-1 0-1s0 0 0 0v0 0c0-5 4-8 8-8v0h312c4 0 8 4 8 8v0zM117 385.429c0 4 4 8 9 8h209c5 0 8-4 8-8v-64c0-4-3-8-8-8h-209c-5 0-9 4-9 8v64c0 0 0 0 0 0z" />
<glyph unicode="&#xe04b;" d="M423 354.429v0c0 2-1 4-2 5v0l-50 50c-2 1-4 2-5 1h-185c-1 0-1 0-1 0-7 0-13-5-13-12v0 0c0 0 0 0 0-1 0 0 0 0 0 0v-187c0 0 0 0 0 0 0-7 5-13 13-13 0 0 0 0 0 0h51c1-1 2-2 3-3l1-1 50-86c5-9 14-15 25-15 16 0 30 13 30 29v0 76h70c7 1 12 6 13 13v0 144zM140 375.429c0 0 0 0 0 0 0 7-5 13-13 13 0 0 0 0 0-1h-25c-7 0-12-5-13-12v0-141h1c0-7 6-12 12-12v0h26c7 0 13 6 13 13 0 0-1 1-1 2z" />
<glyph unicode="&#xe04c;" d="M293 114.429v55c0 2-1 5-3 6-2 2-4 3-7 3h-54c-3 0-5-1-7-3-2-1-3-4-3-6v-55c0-3 1-5 3-7 2-1 4-2 7-2h54c3 0 5 1 7 2 2 2 3 4 3 7zM366 306.429c0 17-6 32-16 46-11 15-24 26-40 34-16 7-32 11-48 11-47 0-82-20-106-61-3-4-2-8 2-12l38-28c1-1 3-2 5-2 3 0 6 1 7 4 10 13 19 21 25 26 6 4 15 7 24 7 10 0 18-3 25-8 7-5 11-10 11-17 0-7-2-13-6-17-4-4-10-9-20-13-12-5-23-13-33-25-10-11-15-23-15-35v-11c0-2 1-5 3-6 2-2 4-3 7-3h54c3 0 5 1 7 3 2 1 3 4 3 6 0 4 2 9 6 14 4 6 9 11 15 15 6 3 11 6 14 8 4 2 8 5 13 10 6 4 10 9 13 13 3 5 6 11 8 18 3 7 4 14 4 23zM475 251.429c0-40-9-77-29-110-20-34-46-60-80-80-33-20-70-29-110-29-40 0-77 9-110 29-34 20-60 46-80 80-20 33-29 70-29 110 0 40 9 77 29 110 20 34 46 60 80 80 33 20 70 29 110 29 40 0 77-9 110-29 34-20 60-46 80-80 20-33 29-70 29-110z" />
<glyph unicode="&#xe04d;" d="M311 148.429v-68c0-3-1-6-4-8-2-3-5-4-8-4h-68c-3 0-6 1-8 4-2 2-4 5-4 8v68c0 3 2 6 4 8s5 4 8 4h68c3 0 6-2 8-4 3-2 4-5 4-8zM401 320.429c0-11-1-20-4-29s-7-17-10-22c-4-6-9-11-16-17-7-6-12-10-16-13-5-2-10-6-18-10-8-4-14-10-19-18-6-8-8-15-8-19 0-4-1-7-4-10-2-3-5-4-8-4h-68c-3 0-6 2-8 5-2 4-3 7-3 11v13c0 16 7 30 19 44s26 25 41 31c11 6 19 11 24 16 5 6 7 13 7 22 0 8-4 15-13 21-9 6-19 9-31 9-12 0-23-2-31-8-7-5-17-16-30-33-3-3-6-4-9-4-3 0-5 0-7 2l-47 36c-3 2-4 4-5 7 0 3 0 5 2 8 30 51 75 76 132 76 16 0 31-3 46-9 16-6 30-14 42-24 13-10 23-22 30-36 8-15 12-30 12-45z" />
<glyph unicode="&#xe04e;" d="M410 198.429l-80 38-34 16c15 9 27 24 35 41 6 14 10 29 10 46 0 9-1 18-4 27-10 41-42 72-81 72-38 0-70-30-81-70-2-9-4-19-4-29 0-18 4-34 11-49 8-16 20-30 35-39l-32-15-83-38c-7-4-12-12-12-21v-91c0-12 8-22 19-22h294c11 0 19 10 19 22v91c0 9-4 17-12 21z" />
<glyph unicode="&#xe04f;" d="M469 303.429c-2 4-6 7-10 7h-144l-49 139c-2 4-6 7-10 7s-8-3-10-7l-49-139h-144c-4 0-8-3-10-7-1-4 0-9 4-11l112-90-50-142c-2-4 0-9 3-11 3-3 8-4 12-1l132 79 132-79c2-1 4-2 5-2 3 0 5 1 7 3 3 2 5 7 3 11l-50 142 112 90c4 2 5 7 4 11z" />
<glyph unicode="&#xe050;" d="M440 404.429h-368c-7 0-13-6-13-13v-27c0-1 1-2 2-3l194-110c0-1 1-1 1-1 1 0 2 0 2 1l188 110c1 1 3 2 5 3 1 1 2 1 2 3v24c0 7-6 13-13 13zM451 324.429c-1 1-2 1-3 0l-106-62c-1 0-1-1-2-2 0-1 1-2 1-3l106-115c1 0 2-1 3-1 0 0 1 1 1 1 1 0 2 1 2 3v177c0 1 0 2-2 2zM311 241.429c-1 1-2 1-4 1l-42-25c-5-3-12-3-17-1l-37 22c-1 1-3 0-4-1l-142-131c-1-1-1-2-1-3s1-2 1-3c3-1 5-2 7-2h364c2 0 3 1 3 2 1 2 1 3 0 4zM176 253.429c1 1 1 2 1 3s-1 2-2 2l-111 64c-1 1-2 0-4 0-1-1-1-2-1-3v-167c0-1 1-2 2-3 0 0 1 0 1 0 1 0 2 0 2 1z" />
<glyph unicode="&#xe051;" d="M295 405.429c0-23-19-42-42-42-24 0-43 19-43 42 0 23 19 42 43 42 23 0 42-19 42-42zM333 351.429v0h-152c-11 0-20-9-20-20v0-120c0-4 2-9 6-12 7-7 18-7 25 0 3 3 5 8 5 12v0 84c0 3 3 6 6 6s5-3 5-6v0-219c0-12 10-21 21-21 12 0 21 9 21 21v110c0 3 3 6 6 6s6-3 6-6v0-110c0-12 9-21 21-21 11 0 21 9 21 21v219c0 3 2 6 5 6s6-3 6-6v-84c0-4 2-9 5-12 7-7 19-7 26 0 3 3 5 8 5 12v0 120c0 11-8 19-18 20z" />
<glyph unicode="&#xe052;" d="M157 406.429c0-23-19-42-43-42-23 0-42 19-42 42 0 23 19 42 42 42 24 0 43-19 43-42zM195 352.429v0h-152c-11 0-20-8-20-19v0-120c0-5 2-10 5-13 7-7 19-7 25 0 4 3 6 8 6 13v0 83c0 3 2 6 5 6s6-3 6-6v0-219c0-12 9-21 21-21 11 0 21 9 21 21v110c0 3 2 6 6 6 3 0 5-3 5-6h1v-110c0-12 9-21 20-21 12 0 21 9 21 21v219c0 3 3 6 6 6s6-3 6-6v-83c0-5 2-10 5-13 7-7 18-7 25 0 4 3 5 8 5 13v0 120c0 10-7 18-17 19zM413 406.429c0-24-19-43-43-43-23 0-42 19-42 43 0 23 19 42 42 42 24 0 43-19 43-42zM489 230.429l-28 106c0 0 0 0 0 0l-1 2c-3 8-10 14-19 14 0 0 0 0 0 0v0h-134c-9 0-16-6-19-14v0-2c0 0-1 0-1 0l-28-106c0-1 0-2 0-3 0-10 8-18 18-18 8 0 14 5 17 11v0l21 78c1 2 3 4 6 4 2 0 4-2 5-4v0-1c0 0 0 0 0 0 0-1 0-1 0-1v-1l-33-124c-1-1-1-2-1-4v0 0c0 0 0 0 0 0 0-6 4-10 10-10h24v-82c0-12 10-21 21-21 12 0 21 9 21 21v82h12v-82c0-12 9-21 21-21s21 9 21 21v82h25c5 0 9 4 9 10 0 0 0 0 0 0v0 0c0 2 0 3-1 4l-33 124c0 1 0 1 0 2 0 3 2 5 6 5 2 0 4-2 5-4v0l21-78c3-6 9-11 17-11 10 0 18 8 18 18 0 1 0 2 0 3z" />
<glyph unicode="&#xe053;" d="M140 361.429c-42 0-77-34-77-76 0-43 35-77 77-77 7 0 13 5 14 12v0 127c0 8-6 14-14 14zM449 423.429c0 8-7 14-14 14-4 0-6-1-9-3l-122-70h-111c-7 0-14-6-14-14v-132h1c0-7 6-13 13-13h98l134-77c3-2 6-4 10-4 7 0 14 7 14 14 0 1-1 1-1 2h1v283c0 0 0 0 0 0zM288 100.429v0c0 0 0 0-1 0 0 0 0 1 0 1l-42 73c-3 3-6 5-10 6v0h-37c-2 0-4-1-6-2-6-4-9-12-5-19 0-1 1-1 1-1v-1l50-85c0 0 0 0 0 0s0 0 0 0v-1c4-6 12-8 19-5 0 1 1 1 2 2v0l25 14v1c5 4 7 11 4 17z" />
<glyph unicode="&#xe054;" d="M256 454.429c-80 0-144-65-144-145 0-32 10-62 28-86l93-161c0-1 1-2 2-3v0 0c5-6 12-11 21-11 8 0 15 4 20 10v-1l1 2c1 2 2 4 3 6l91 157c18 24 29 55 29 87 0 80-64 145-144 145zM255 236.429c-40 0-72 32-72 71 0 40 32 71 72 71 39 0 71-31 71-71 0-39-32-71-71-71z" />
<glyph unicode="&#xe055;" d="M479 285.429c-1 2-1 4-3 6s-5 3-7 3h-202c-13 51-60 89-115 89-65 0-119-54-119-119 0-66 54-119 119-119 59 0 107 43 117 99h45v-65c0-5 5-9 10-9 0 0 0 0 0 0v0h31c5 0 10 4 10 9v0 65h26v-100c0-5 4-9 9-9 0 0 0 0 0 0h32c0 0 0 0 0 0 5 0 9 4 10 9v0 100h27c2 0 5 0 7 2s3 5 3 7v0 32zM152 195.429c-37 0-68 30-68 68s31 68 68 68c38 0 68-30 68-68 0-38-30-68-68-68z" />
<glyph unicode="&#xe056;" d="M411 410.429v0 0c3 3 3 8 0 11l-10 10c-3 3-8 3-11 0v0l-45-45c-3-3-3-7 0-10l11-11c2-3 7-3 10 0zM249 408.429v0h14c4 0 8 3 8 7v0 64c0 5-3 8-8 8v0h-14c-5 0-8-3-8-8v-64c0-4 4-7 8-7zM469 302.429c0 4-3 7-7 8v0h-64c-4 0-8-4-8-8v-15c0-4 4-7 8-7h64c4 0 7 3 7 7zM256 383.429c-60 0-109-49-109-109 0-23 8-45 20-63v0c17-25 27-59 27-96 2-2 4-4 7-4 0 0 0 0 1 0v0h108c0 0 1 0 1 0 3 0 5 2 7 5 0 38 12 73 29 99 11 17 18 37 18 59 0 60-49 109-109 109zM311 47.429c0 0-1 0-1 0v0h-108c-1 0-1 0-1 0-4 0-8-3-8-7v-17c0-5 4-8 8-8 0 0 0 0 1 0v0h108c0 0 1 0 1 0 4 0 7 3 7 8v17c0 4-3 7-7 7zM311 96.429c0 0-1 0-1 0v0h-108c-1 0-1 0-1 0-4 0-7-4-8-8 0 0 0 0 0 0v-17c0-4 4-8 8-8 0 0 0 0 1 1v-1h108v1c0-1 1-1 1-1 4 0 7 4 7 8v17c0 4-3 8-7 8zM114 304.429v0h-64c-4 0-7-3-7-8v-14c0-5 3-8 7-8h64c4 0 8 4 8 8v14c0 4-4 8-8 8zM103 413.429l46-46c3-2 7-2 10 1v0l11 10c2 3 2 8 0 10v0l-46 46c-2 3-7 3-10 0l-11-11c-2-3-2-7 0-10z" />
<glyph unicode="&#xe057;" d="M429 386.429c0 3-2 6-5 7-2 1-5 1-8 0l-30-22-2-2c-33 33-78 53-128 53-68 0-127-37-158-93v0c-3-6-1-13 5-17 0 0 0 0 0 0l42-24c6-3 14-1 17 5 0 0 0 0 0 0 19 33 54 55 94 55 25 0 48-9 66-23l-5-4-30-21c-3-2-4-5-3-8 0-3 2-5 5-6l130-44c2-1 5-1 7 1 2 1 3 3 3 6zM409 190.429c0 0 0 0 0 0l-42 24c-6 3-14 1-17-5 0 0 0 0 0 0-19-33-54-55-94-55-25 0-48 9-66 23l5 4 30 21c3 2 4 5 3 8 0 3-2 5-5 6l-130 44c-2 1-5 1-7-1-2-1-3-3-3-6v-137c0-3 2-6 5-7 2-1 5-1 8 0l30 22 2 2c33-33 78-53 128-53 68 0 127 37 158 93v0c3 6 1 13-5 17z" />
<glyph unicode="&#xe058;" d="M286 18.429v479c0 2-3 4-7 4-3 0-6-2-6-4l-1 1-133-133h-139v-228h140l132-133h1c1-1 3-3 6-3 4 0 7 2 7 4v13zM75 345.429v-188h-15v188zM20 345.429h20v-188h-20zM149 157.429v0h-55v188h54v1l125 124v-438zM436 404.429l-12-15c0-1 64-55 68-133 2-50-21-100-68-148l14-14c52 52 76 107 74 163-4 87-73 145-76 147zM357 328.429l-13-16c1 0 33-27 34-65 1-25-10-49-34-73l14-14c28 28 41 57 40 88-2 47-39 78-41 80zM401 365.429l-12-15c0-1 46-39 49-95 1-36-15-72-49-106l14-14c38 38 56 79 54 121-3 64-53 107-56 109z" />
<glyph unicode="&#xe059;" d="M238 406.429v-310c0-5-2-10-6-13-3-4-8-6-13-6-5 0-9 2-12 6l-96 95h-74c-5 0-10 2-13 5-4 4-6 8-6 13v110c0 5 2 9 6 13 3 3 8 5 13 5h74l96 95c3 4 7 6 12 6s10-2 13-6c4-3 6-8 6-13zM347 251.429c0-14-4-28-12-40-8-13-19-22-32-27-2-1-4-2-7-2-5 0-9 2-13 6-3 3-5 8-5 13 0 4 1 7 3 10 2 3 5 5 8 7 4 2 7 4 10 7 3 2 6 5 8 10 3 4 4 10 4 16 0 6-1 12-4 16-2 5-5 8-8 10-3 3-6 5-10 7-3 2-6 4-8 7-2 3-3 6-3 10 0 5 2 10 5 13 4 4 8 6 13 6 3 0 5-1 7-2 13-5 24-14 32-26 8-13 12-27 12-41zM421 251.429c0-29-9-56-25-81-16-24-37-42-64-54-2-1-5-1-7-1-5 0-10 2-13 5-4 4-6 8-6 13 0 8 4 13 11 17 11 6 18 10 22 13 14 10 25 23 33 38 8 16 12 32 12 50 0 18-4 34-12 50-8 15-19 28-33 38-4 3-11 7-22 13-7 4-11 9-11 17 0 5 2 9 6 13 3 3 8 5 13 5 2 0 5 0 7-1 27-12 48-30 64-54 16-25 25-52 25-81zM494 251.429c0-44-12-84-37-121-24-36-56-63-96-81-3-1-5-1-8-1-5 0-9 2-12 5-4 4-6 8-6 13 0 7 4 13 11 17 2 1 4 2 7 3 3 1 5 2 6 3 9 5 17 10 24 15 23 17 41 39 54 64 14 26 20 54 20 83 0 29-6 57-20 83-13 25-31 47-54 64-7 5-15 10-24 15-1 1-3 2-6 3-3 1-5 2-7 3-7 4-11 10-11 17 0 5 2 9 6 13 3 3 7 5 12 5 3 0 5 0 8-1 40-18 72-45 96-81 25-37 37-77 37-121z" />
<glyph unicode="&#xe05a;" d="M512 406.429v-310c0-8-4-14-11-17-3-1-5-2-7-2-5 0-10 2-13 6l-115 115v-48c0-22-8-42-24-58-17-16-36-24-59-24h-201c-22 0-42 8-58 24s-24 36-24 58v202c0 22 8 42 24 58s36 24 58 24h201c23 0 42-8 59-24 16-16 24-36 24-58v-48l115 115c3 4 8 6 13 6 2 0 4-1 7-2 7-3 11-9 11-17z" />
<glyph unicode="&#xe05b;" d="M272 486.429l-85-107h-85c-36 0-59-34-59-69v-123c0-35 23-64 59-64h85l85-107c22 0 48 0 48 0v470c-21 0-26 0-48 0zM171 166.429h-69c-12 0-17 9-17 21v123c0 11 5 26 17 26h69zM277 80.429l-85 86v170l85 86zM363 358.429v-45c42-9 42-32 42-60s0-51-42-60v-44c64 10 85 53 85 104 0 52-21 95-85 105z" />
<glyph unicode="&#xe075;" d="M480 411.429h-14c-9 0-17-3-23-9l-43-43v20c0 27-22 48-48 48h-304c-26 0-48-22-48-48v-256c0-26 21-48 48-48h304c26 0 48 22 48 48v20l43-43c6-6 14-9 23-9h14c18 0 32 14 32 32v256c0 18-14 32-32 32zM48 107.429c-9 0-16 7-16 16v256c0 9 7 16 16 16h304c9 0 16-7 16-16v-256c0-9-7-16-16-16zM480 123.429h-16l-80 80v96l80 80h16z" />
<glyph unicode="&#xe600;" d="M303.872 90.251l-23.526 23.526 94.131 94.131 23.526-23.526-94.131-94.131zM350.95 160.83l-23.526-23.526-47.079 47.053 23.526 23.526 47.079-47.053zM303.872 419.698c-64.999 64.973-170.343 64.973-235.315 0-64.999-64.999-64.999-170.343 0-235.341 64.999-64.973 170.343-64.973 235.315 0 64.998 64.973 64.998 170.342 0 235.341zM116.633 188.914c-8.678 5.325-17.024 11.443-24.525 18.969-51.993 51.993-51.993 136.269 0 188.262 7.526 7.526 15.872 13.645 24.525 18.995v-226.227zM280.346 207.883c-35.353-35.353-85.504-46.080-130.432-33.331v254.925c44.928 12.749 95.078 2.048 130.432-33.331 51.993-51.993 51.993-136.269 0-188.262zM492.135 66.7l-105.907 105.907c-13.005 12.979-34.074 12.979-47.053 0l-23.526-23.526c-12.979-13.005-12.979-34.074 0-47.053l105.907-105.907c13.005-13.005 34.074-13.005 47.053 0l23.526 23.526c13.005 12.979 13.005 34.048 0 47.053zM445.082 19.646l-105.907 105.882 23.526 23.526 105.882-105.907-23.501-23.501z" />
<glyph unicode="&#xe601;" d="M975.381 288.441c-6.343 39.363-38.942 63.074-80.43 63.074-43.602 0-75.35-20.744-75.35-55.458 0-35.987 44.023-47.411 84.239-58.413 41.067-11.435 99.902-27.939 99.902-87.637 0-48.673-42.33-84.67-106.255-84.67-63.915 0-102.857 38.101-109.211 86.795l23.29 6.343c3.376-38.090 33.861-70.7 86.774-70.7 49.104 0 79.999 26.257 79.999 61.8 0 49.104-55.867 58.425-97.356 70.701-33.861 9.73-86.352 24.131-86.352 74.929 0 46.137 42.75 78.305 101.164 78.305 52.923 0 94.411-30.895 103.299-78.737l-23.711-6.332zM1353.402 367.588v-296.307h-24.552v143.072h-176.103v-143.072h-24.131v296.307h24.131v-129.945h176.103v129.945zM1687.4 157.633h-156.201l-37.669-86.363h-26.677l131.649 296.329h21.585l131.649-296.329h-26.667l-37.669 86.363zM1677.659 179.219l-54.605 124.875c-6.353 15.243-13.128 34.293-13.549 34.293h-0.42c-0.431 0-7.195-19.050-13.549-34.293l-54.605-124.875h136.729zM2101.387 367.588v-296.317h-22.858l-151.12 203.611c-25.393 34.714-38.101 53.754-38.522 53.754h-0.431c-0.42 0 0.852-34.714 0.852-77.033v-180.332h-24.12v296.317h22.848l150.71-202.77c23.29-31.327 38.521-52.491 38.932-52.491h0.432c0.421 0-1.273 35.555-1.273 75.35v179.911h24.552zM2446.376 367.588v-23.279h-101.595v-273.028h-24.552v273.028h-101.175v23.279zM2564.477 367.588h24.12v-296.317h-24.12v296.317zM255.919 6.773c-7.583 0-15.286 0.95-22.966 2.923-23.862 6.138-43.893 21.208-56.429 42.426l-25.113 42.524 81.973 48.295c10.776 5.545 23.053 6.947 34.865 3.884 12.772-3.29 23.505-11.349 30.216-22.697 6.699-11.37 8.587-24.649 5.296-37.432-3.29-12.772-11.349-23.505-22.707-30.216-11.359-6.699-24.66-8.587-37.422-5.296-12.772 3.301-23.506 11.359-30.215 22.707l-15.339 25.986-20.334-12.007 15.339-25.986c9.913-16.785 25.771-28.716 44.66-33.581 38.964-10.022 78.856 13.538 88.898 52.502 4.854 18.889 2.071 38.533-7.842 55.317l-47.303 80.096 16.548 9.774 47.303-80.096c12.524-21.208 16.041-46.019 9.903-69.88-10.701-41.563-48.262-69.244-89.33-69.244zM214.636 109.641l15.339-25.976c4.099-6.947 10.647-11.866 18.446-13.873 16.073-4.11 32.578 5.588 36.731 21.694 2.007 7.8 0.852 15.922-3.247 22.858-4.089 6.937-10.647 11.856-18.447 13.861-7.756 1.995-15.836 0.874-22.762-3.183l-26.062-15.383zM380.772 114.851l-48.284 81.973c-5.545 10.766-6.937 23.053-3.894 34.864 6.796 26.375 33.775 42.319 60.128 35.512 26.365-6.785 42.297-33.754 35.512-60.129-3.29-12.772-11.359-23.505-22.707-30.216l-25.986-15.339 12.017-20.334 25.965 15.339c16.796 9.913 28.716 25.771 33.592 44.671 4.854 18.878 2.071 38.522-7.842 55.307-9.913 16.796-25.782 28.716-44.659 33.581-18.889 4.854-38.522 2.071-55.317-7.843l-80.096-47.302-9.762 16.548 80.086 47.303c21.208 12.535 46.041 16.041 69.88 9.903 23.861-6.138 43.894-21.197 56.418-42.405 12.535-21.219 16.041-46.030 9.903-69.891-6.138-23.861-21.208-43.894-42.426-56.407l-42.524-25.135zM351.711 201.883l14.067-23.808 25.976 15.339c6.925 4.099 11.856 10.637 13.873 18.447 4.142 16.106-5.588 32.578-21.694 36.731-16.073 4.131-32.578-5.588-36.72-21.694-1.995-7.756-0.874-15.836 3.171-22.751l1.327-2.265zM135.726 127.235c-7.713 0-15.48 0.971-23.15 2.945-23.851 6.138-43.883 21.197-56.418 42.405-12.524 21.219-16.041 46.041-9.892 69.891 6.127 23.851 21.197 43.883 42.416 56.418l42.523 25.113 48.295-81.973c5.544-10.766 6.936-23.042 3.894-34.854-6.785-26.353-33.754-42.329-60.129-35.522s-42.308 33.775-35.512 60.129c3.279 12.772 11.349 23.506 22.697 30.215l25.986 15.339-12.007 20.334-25.976-15.339c-16.796-9.913-28.727-25.771-33.581-44.66-4.855-18.878-2.082-38.521 7.843-55.318 9.913-16.785 25.771-28.705 44.66-33.56 18.899-4.865 38.532-2.082 55.306 7.832l80.107 47.303 9.762-16.548-80.085-47.303c-14.391-8.5-30.453-12.848-46.742-12.848zM146.212 260.804l-25.987-15.339c-6.936-4.099-11.856-10.658-13.862-18.457s-0.863-15.911 3.236-22.848c4.099-6.947 10.647-11.877 18.457-13.873 16.052-4.121 32.578 5.588 36.72 21.694 1.995 7.756 0.863 15.836-3.183 22.75l-15.383 26.073zM223.892 212.876l-47.303 80.096c-12.524 21.208-16.041 46.029-9.903 69.88 6.138 23.861 21.197 43.894 42.416 56.418 21.219 12.524 46.051 16.041 69.881 9.903 23.873-6.149 43.904-21.208 56.428-42.427l25.113-42.523-81.973-48.284c-10.766-5.555-23.031-6.936-34.864-3.894-26.364 6.785-42.297 33.764-35.512 60.128s33.743 42.33 60.129 35.512c12.783-3.29 23.505-11.359 30.216-22.718l15.339-25.976 20.345 12.007-15.351 25.976c-9.913 16.796-25.771 28.716-44.659 33.581-38.942 10.010-78.856-13.506-88.888-52.491-4.865-18.888-2.082-38.532 7.832-55.317l47.303-80.096-16.548-9.774zM256.005 370.026c-13.43 0-25.717-9.050-29.223-22.654-4.131-16.094 5.599-32.567 21.704-36.72 7.767-1.985 15.836-0.863 22.75 3.183l26.073 15.383-15.339 25.987c-4.099 6.925-10.647 11.856-18.457 13.873-2.514 0.637-5.027 0.95-7.508 0.95zM256.070-36.571c-11.37 0-22.772 1.445-33.873 4.304-55.469 14.272-95.166 60.668-101.034 116.913-6.516 0.69-12.999 1.888-19.395 3.527-72.373 18.63-116.104 92.674-97.475 165.036 14.282 55.469 60.679 95.166 116.913 101.034 0.701 6.516 1.888 13.010 3.528 19.396 15.426 59.935 69.362 101.789 131.174 101.789 11.37 0 22.762-1.445 33.873-4.304 55.458-14.283 95.155-60.668 101.034-116.913 6.537-0.712 13.031-1.888 19.396-3.528 35.059-9.029 64.509-31.164 82.923-62.34 18.403-31.175 23.571-67.647 14.541-102.707-14.272-55.469-60.668-95.155-116.902-101.024-0.712-6.526-1.888-13.021-3.527-19.406-15.426-59.923-69.363-101.778-131.174-101.778zM139.815 346.002l1.941-9.838-11.186-0.496c-51.52-2.19-94.788-37.249-107.668-87.248-15.976-62.092 21.543-125.64 83.656-141.627 7.897-2.028 15.976-3.236 24.002-3.592l9.191-0.399v-9.202c2.19-51.121 37.249-94.378 87.237-107.248 9.547-2.459 19.331-3.7 29.082-3.7 53.031 0 99.319 35.911 112.555 87.345 2.028 7.875 3.236 15.954 3.592 24.002l0.389 8.803 8.803 0.377c51.52 2.19 94.788 37.248 107.658 87.248 7.745 30.086 3.312 61.391-12.492 88.144-15.793 26.752-41.067 45.749-71.164 53.505-7.842 2.017-15.933 3.226-24.024 3.603l-8.781 0.41-0.367 8.781c-2.2 51.51-37.271 94.767-87.259 107.636-9.536 2.459-19.32 3.711-29.072 3.711-53.031 0-99.319-35.922-112.555-87.356-1.941-7.519-3.129-15.21-3.538-22.859z" horiz-adv-x="2589" />
<glyph unicode="&#xe602;" d="M319.967-23.497v67.34c74.368 26.424 127.933 96.7 127.933 180.157 0 83.426-53.565 153.732-127.934 180.156v67.341c110.288-28.485 191.902-128.309 191.902-247.497s-81.614-219.043-191.901-247.497zM256-31.868l-127.934 127.933h-95.951c-17.678 0-31.983 14.306-31.983 31.983v191.902c0 17.679 14.306 31.983 31.983 31.983h95.951l127.934 127.934c0 0 31.983 3.998 31.983-31.983 0-72.899 0-382.053 0-447.769 0-35.981-31.983-31.983-31.983-31.983zM224.017 351.934l-63.967-63.967h-95.951v-127.934h95.951l63.967-63.968v255.869zM415.917 224c0-59.532-40.854-109.132-95.95-123.405v68.309c19.053 11.087 31.983 31.483 31.983 55.096 0 23.612-12.931 44.008-31.983 55.097v68.308c55.096-14.274 95.95-63.874 95.95-123.405z" />
<glyph unicode="&#xe603;" d="M81.776 443.429v-448h348.448v448h-348.448zM380.432 393.653v-49.776h-248.88v49.776h248.88zM131.552 244.309v49.792h248.88v-49.792h-248.88zM380.432 194.517v-49.76h-248.88v49.76h248.88zM131.552 45.205v49.776h248.88v-49.776h-248.88z" />
<glyph unicode="&#xe605;" d="M0 283.429h352v-64h-352v64zM0 379.429h352v-64h-352v64zM0 187.429h352v-64h-352v64zM0 91.429h352v-64h-352v64zM384 187.429l64-96 64 96h-128zM512 219.429l-64 96-64-96h128z" />
<glyph unicode="&#xe606;" d="M256 376.229c-123.712 0-224-90.624-224-156.8s100.288-156.8 224-156.8c123.728 0 224 88.912 224 156.8 0 67.904-100.272 156.8-224 156.8zM256 107.429c-61.84 0-179.2 43.264-179.2 112 0 68.72 117.36 112 179.2 112 61.856 0 179.2-45.072 179.2-112 0-66.944-117.344-112-179.2-112zM256 309.029c-49.472 0-89.6-40.128-89.6-89.6 0-49.488 40.128-89.616 89.6-89.616 49.488 0 89.616 40.128 89.616 89.616 0 49.472-40.128 89.6-89.616 89.6zM256 174.629c-24.736 0-44.8 20.080-44.8 44.8 0 24.736 20.064 44.8 44.8 44.8 24.72 0 44.8-20.064 44.8-44.8 0-24.72-20.080-44.8-44.8-44.8z" />
<glyph unicode="&#xe607;" d="M488 91.429h-8v104c0 30.88-25.12 56-56 56h-136v64h8c13.2 0 24 10.8 24 24v80c0 13.2-10.8 24-24 24h-80c-13.2 0-24-10.8-24-24v-80c0-13.2 10.8-24 24-24h8v-64h-136c-30.88 0-56-25.12-56-56v-104h-8c-13.2 0-24-10.8-24-24v-80c0-13.2 10.8-24 24-24h80c13.2 0 24 10.8 24 24v80c0 13.2-10.8 24-24 24h-8v96h128v-96h-8c-13.2 0-24-10.8-24-24v-80c0-13.2 10.8-24 24-24h80c13.2 0 24 10.8 24 24v80c0 13.2-10.8 24-24 24h-8v96h128v-96h-8c-13.2 0-24-10.8-24-24v-80c0-13.2 10.8-24 24-24h80c13.2 0 24 10.8 24 24v80c0 13.2-10.8 24-24 24zM96-4.571h-64v64h64v-64zM288-4.571h-64v64h64v-64zM224 347.429v64h64v-64h-64zM480-4.571h-64v64h64v-64z" />
<glyph unicode="&#xe608;" d="M188.8 331.429v44.8h291.2v-44.8h-291.2zM76.8 129.829c24.736 0 44.8-20.096 44.8-44.816s-20.064-44.8-44.8-44.8c-24.72 0-44.8 20.080-44.8 44.8s20.064 44.816 44.8 44.816zM76.8 264.229c24.736 0 44.8-20.064 44.8-44.8 0-24.72-20.064-44.8-44.8-44.8-24.736 0-44.8 20.080-44.8 44.8 0 24.72 20.064 44.8 44.8 44.8zM76.8 398.629c24.736 0 44.8-20.064 44.8-44.8 0-24.752-20.064-44.8-44.8-44.8-24.736 0-44.8 20.048-44.8 44.8 0 24.736 20.064 44.8 44.8 44.8zM188.8 62.629v44.8h291.2v-44.8h-291.2zM188.8 197.029v44.8h291.2v-44.8h-291.2z" />
<glyph unicode="&#xe609;" d="M233.6 334.901h44.784v-227.472h-44.784v227.472zM76.8 264.229h358.4v-44.8h-358.4v44.8zM76.8 264.229h44.8v-91.008h-44.8v91.008zM390.384 264.229h44.816v-86.64h-44.816v86.64zM256 443.429c-37.12 0-67.2-30.080-67.2-67.2s30.080-67.2 67.2-67.2c37.104 0 67.2 30.080 67.2 67.2 0 37.12-30.096 67.2-67.2 67.2zM256 353.829c-12.352 0-22.4 10-22.4 22.4 0 12.368 10.048 22.4 22.4 22.4s22.384-10.032 22.384-22.384c0-12.416-10.032-22.416-22.384-22.416zM412.8 197.045c-37.088 0-67.184-30.112-67.184-67.216s30.080-67.2 67.184-67.2 67.2 30.080 67.2 67.184-30.112 67.232-67.2 67.232zM412.8 107.429c-12.368 0-22.4 10.016-22.4 22.384 0 12.384 10.032 22.4 22.4 22.4s22.4-10.016 22.4-22.4c0-12.368-10.032-22.384-22.4-22.384zM256 129.813c-37.12 0-67.2-30.096-67.2-67.184 0-37.12 30.080-67.2 67.2-67.2 37.104 0 67.2 30.080 67.2 67.2 0 37.104-30.096 67.184-67.2 67.184zM256 40.229c-12.352 0-22.4 10.032-22.4 22.4s10.032 22.4 22.4 22.4 22.384-10.032 22.384-22.4-10.032-22.4-22.384-22.4zM99.2 197.045c-37.12 0-67.2-30.112-67.2-67.216s30.080-67.2 67.2-67.2c37.12 0 67.2 30.080 67.2 67.184s-30.080 67.232-67.2 67.232zM99.2 107.429c-12.368 0-22.4 10.016-22.4 22.384 0 12.384 10.032 22.4 22.384 22.4s22.4-10.016 22.4-22.4c0.016-12.368-10.032-22.384-22.384-22.384z" />
<glyph unicode="&#xe60a;" d="M512 315.429l-256 128-256-128 256-128 256 128zM256 400.949l171.024-85.52-171.024-85.52-171.024 85.52 171.024 85.52zM460.72 245.061l51.28-25.632-256-128-256 128 51.28 25.632 204.72-102.368 204.72 102.368zM460.72 149.061l51.28-25.632-256-128-256 128 51.28 25.632 204.72-102.368 204.72 102.368z" />
<glyph unicode="&#xe60b;" d="M489.792 115.429c14.16 31.792 22.208 66.944 22.208 104 0 141.36-114.592 256-256 256-141.392 0-256-114.64-256-256 0-141.408 114.608-256 256-256 102.048 0 189.872 59.824 231.008 146.208l4.304 4.304-1.52 1.488zM324.096 168.229h-77.168l-80.56 80.576 21.536 21.824h74.288l82.016-82.032-20.112-20.368zM51.2 219.429c0 21.76 3.456 42.704 9.744 62.368l113.568-113.584h-116.592c-4.24 16.4-6.72 33.504-6.72 51.216zM334.624 270.629h119.456c4.24-16.384 6.72-33.488 6.72-51.2 0-22.544-3.776-44.192-10.512-64.464l-115.664 115.664zM433.168 321.829h-194.768l88.368 89.568c45.072-16.624 82.624-48.528 106.4-89.568zM256 424.229c4.336 0 8.576-0.384 12.848-0.656l-137.696-139.568-46.832 46.848c36.512 56.16 99.696 93.376 171.68 93.376zM78.832 117.029h194.736l-88.368-89.568c-45.056 16.64-82.592 48.528-106.368 89.568zM256 14.629c-4.32 0-8.544 0.384-12.784 0.64l136.224 138.112 47.152-47.168c-36.688-55.168-99.376-91.584-170.592-91.584z" />
<glyph unicode="&#xe60e;" d="M256 475.429c-113.104 0-204.8-91.696-204.8-204.8 0-152 204.8-307.2 204.8-307.2s204.8 154.752 204.8 307.2c0 113.104-91.712 204.8-204.8 204.8zM256 27.733c0 0-153.6 114.4-153.6 242.912 0 84.816 68.784 153.6 153.6 153.6 84.848 0 153.6-68.752 153.6-153.6 0-128.816-153.6-242.912-153.6-242.912zM256 321.829c28.256 0 51.2-22.944 51.2-51.2 0-28.288-22.96-51.2-51.2-51.2-28.272 0-51.2 22.912-51.2 51.2 0 28.256 22.928 51.2 51.2 51.2z" />
<glyph unicode="&#xe60f;" d="M32 398.629v-358.4h448v358.4h-448zM76.8 85.029v268.8h44.8v-268.8h-44.8zM166.4 85.029v268.8h44.8v-268.8h-44.8zM435.2 85.029h-179.2v268.8h179.2v-268.8zM300.8 309.029h89.616v-67.2h-89.616v67.2z" />
<glyph unicode="&#xe610;" d="M32 83.429v64h448v-64h-448zM32 307.429v64h448v-64h-448z" />
<glyph unicode="&#xe611;" d="M230.4 475.429h51.2v-512h-51.2v512zM102.4 424.229l-76.8-76.8 76.8-76.8h307.2v153.6h-307.2zM358.4 321.829h-230.4l-25.6 25.6 25.6 25.6h230.4v-51.2zM409.6 245.029h-307.2v-153.6h307.2l76.816 76.8-76.816 76.8zM384 142.629h-230.4v51.2h230.4l25.6-25.616-25.6-25.584z" />
<glyph unicode="&#xe614;" d="M32 379.429h448v-96h-448v96zM32 251.429h448v-96h-448v96zM32 123.429h448v-96h-448v96z" />
<glyph unicode="&#xe615;" d="M291.76 371.893v-382.32l28.544-13.952 175.696 75.344v408.464l-204.24-87.536zM437.648 94.421l-87.536-43.456v275.36l87.536 45.568v-277.472zM176.288 446.405l-30.4-12.816v-382.624l176.256-75.568 27.968 12.288v384.208l-173.824 74.512zM291.76 50.965l-87.536 44.56v276.368l87.536-44.464v-276.464zM175.872 447.253l-175.872-75.36v-408.464l204.24 87.536v384.944l-28.368 11.344zM145.888 97.509l-87.536-46.544v277.952l87.536 42.976v-274.384z" />
<glyph unicode="&#xe616;" d="M192 443.429h320v-64h-320v64zM192 251.429h320v-64h-320v64zM192 59.429h320v-64h-320v64zM0 411.429c0 35.344 28.656 64 64 64s64-28.656 64-64-28.656-64-64-64-64 28.656-64 64zM0 219.429c0 35.344 28.656 64 64 64s64-28.656 64-64-28.656-64-64-64-64 28.656-64 64zM0 27.429c0 35.344 28.656 64 64 64s64-28.656 64-64-28.656-64-64-64-64 28.656-64 64z" />
<glyph unicode="&#xe617;" d="M32 443.429h112v-112h-112v112zM200 415.429h280v-56h-280v56zM32 275.429h112v-112h-112v112zM200 247.429h280v-56h-280v56zM32 107.429h112v-112h-112v112zM200 79.429h280v-56h-280v56z" />
<glyph unicode="&#xe61a;" d="M153.6 373.029v-409.6h332.8v409.6h-332.8zM435.2 14.629h-230.4v307.2h230.4v-307.2zM25.6 475.429v-409.6h332.8v409.6h-332.8zM307.2 117.029h-230.4v307.2h230.4v-307.2z" />
<glyph unicode="&#xe61c;" d="M349.328 442.101c-38.528 0-71.648-23.392-85.856-56.752 13.12-1.072 25.408-4.768 36.464-10.72 9.36 17.824 27.84 30.128 49.392 30.128 30.928 0 56-25.056 56-56s-25.072-56-56-56c0-12.992-2.688-25.328-7.472-36.592 2.512-0.208 4.928-0.752 7.472-0.752 51.568 0 93.344 41.776 93.344 93.328s-41.776 93.36-93.344 93.36zM106.672 348.773c0 30.944 25.072 56 56 56 21.536 0 40.016-12.304 49.392-30.128 11.040 5.952 23.328 9.648 36.464 10.72-14.24 33.36-47.328 56.752-85.872 56.752-51.536 0-93.328-41.776-93.328-93.328s41.792-93.328 93.328-93.328c2.56 0 4.976 0.544 7.472 0.752-4.768 11.264-7.472 23.6-7.472 36.592-30.928-0.032-55.984 25.024-55.984 55.968zM299.936 374.645c-11.040 5.952-23.344 9.648-36.464 10.72-2.496 0.208-4.912 0.736-7.472 0.736s-4.976-0.544-7.472-0.752c-13.136-1.072-25.424-4.768-36.464-10.72-29.28-15.744-49.392-46.32-49.392-81.872 0-12.992 2.688-25.328 7.472-36.592 14.24-33.36 47.328-56.736 85.872-56.736 38.528 0 71.648 23.376 85.856 56.736 4.784 11.264 7.472 23.6 7.472 36.592-0.016 35.568-20.144 66.128-49.408 81.888zM305.408 266.901c-9.376-17.824-27.856-30.128-49.408-30.128-21.536 0-40.016 12.304-49.392 30.128-4.096 7.76-6.608 16.48-6.608 25.872 0 6.080 1.216 11.808 3.008 17.296 2.656 8.080 6.912 15.408 12.656 21.408 10.192 10.624 24.448 17.296 40.336 17.296s30.16-6.672 40.336-17.296c5.728-6 10-13.328 12.656-21.408 1.792-5.488 3.008-11.216 3.008-17.296 0-9.392-2.512-18.112-6.592-25.872zM480 135.045c0 76.8-58.496 139.072-130.672 139.072-43.12 0-56.576-47.792-105.040-56.64 3.856 0.352 7.76 0.64 11.712 0.64 11.232 0 22.016-1.664 32.4-4.48 16.368 14.224 37.52 23.152 60.928 23.152 51.568 0 93.344-41.776 93.344-93.328 0-20.448-25.888-33.312-58.336-38.544 1.488-8.416 2.336-17.008 2.336-25.856 0-2.72-0.272-5.376-0.752-7.936 51.088 6.88 94.080 28.304 94.080 63.92zM127.616 104.869c-32.448 5.216-58.272 18.048-58.272 38.576 0 51.552 41.792 93.328 93.328 93.328 23.424 0 44.592-8.944 60.976-23.184 6.704 1.824 13.568 3.216 20.624 3.888 3.888 0.352 7.792 0.64 11.744 0.64 4.032 0 7.952-0.448 11.888-0.848-55.872 4.992-62 56.848-105.232 56.848-72.176-0.016-130.672-62.272-130.672-139.072 0-36.192 43.008-57.488 94.112-64.144-0.496 2.624-0.784 5.344-0.784 8.144 0 8.832 0.8 17.424 2.288 25.824zM384.336 104.901c-9.408 53.136-47.136 95.456-95.92 108.72-6.656 1.808-13.536 2.912-20.528 3.648-3.936 0.384-7.84 0.848-11.872 0.848-3.952 0-7.856-0.272-11.712-0.64-7.072-0.672-13.952-2.048-20.624-3.888-48.8-13.248-86.64-55.6-96.016-108.72-1.504-8.384-2.304-16.992-2.304-25.824 0-2.8 0.288-5.52 0.784-8.16 14.896-78.32 245.056-77.104 259.808 0.224 0.48 2.56 0.752 5.216 0.752 7.936-0.032 8.832-0.896 17.424-2.368 25.856zM162.672 87.445c0 51.552 41.808 93.328 93.328 93.328 51.552 0 93.328-41.776 93.328-93.328 0-54.96-186.656-55.152-186.656 0z" />
<glyph unicode="&#xe61e;" d="M256 475.429c-141.392 0-256-114.608-256-256s114.608-256 256-256 256 114.608 256 256-114.608 256-256 256zM384 302.181l-82.752-82.752 82.752-82.752v-45.248h-45.248l-82.752 82.752-82.752-82.752h-45.248v45.248l82.752 82.752-82.752 82.752v45.248h45.248l82.752-82.752 82.752 82.752h45.248v-45.248z" />
<glyph unicode="&#xe61f;" d="M182.736 428.261v-417.68l313.264 208.848-313.264 208.832zM234.944 336.869l170.048-117.44-170.032-116.864v234.304zM0 428.261v-417.68l313.264 208.848-313.264 208.832zM52.224 336.869l170.016-117.44-170.016-116.864v234.304z" />
<glyph unicode="&#xe620;" d="M256 59.429l-96 128h192l-96-128zM256 379.429l96-128h-192l96 128z" />
<glyph unicode="&#xe621;" d="M256 475.365c-70.688 0-127.952-57.264-127.952-127.952 0-70.672 57.264-127.952 127.952-127.952 70.672 0 127.952 57.264 127.952 127.952 0 70.688-57.28 127.952-127.952 127.952zM256 270.645c-42.4 0-76.768 34.352-76.768 76.768s34.368 76.768 76.768 76.768 76.768-34.352 76.768-76.768c0-42.4-34.368-76.768-76.768-76.768zM256 245.061c-98.944 0-179.136-85.36-179.136-190.656 0-122.336 358.256-120.416 358.256 0 0 105.296-80.176 190.656-179.12 190.656zM128.048 65.925c0 70.672 57.264 127.952 127.952 127.952 70.672 0 127.952-57.28 127.952-127.952 0-75.328-255.904-75.568-255.904 0z" />
<glyph unicode="&#xe622;" d="M432.912 361.653v113.776h-56.912v-113.776h-256v113.776h-56.896v-113.776h-56.88v-398.224h483.552v398.224h-56.864zM432.88 304.757v-113.76h-85.312v113.76h85.312zM290.672 304.757v-113.76h-85.328v113.76h85.328zM290.672 134.101v-113.76h-85.328v113.76h85.328zM63.104 304.757h85.344v-113.76h-85.344v113.76zM63.104 134.101h85.344v-113.76h-85.344v113.76zM347.568 20.341v113.76h85.312v-113.76h-85.312z" />
</font>
</defs>
</svg>
